<?xml version="1.0" encoding="UTF-8"?>
<svg width="700pt" height="700pt" version="1.1" viewBox="0 0 700 700" xmlns="http://www.w3.org/2000/svg">
 <g>
  <path d="m350 140c-6.1875 0-12.125 2.457-16.5 6.8359-4.375 4.375-6.832 10.309-6.832 16.496 0.011719 4.3086 1.2188 8.5312 3.4844 12.195 2.2656 3.668 5.5 6.6328 9.3477 8.5742 6.6055 3.3281 14.395 3.3281 21 0 3.8477-1.9414 7.082-4.9062 9.3477-8.5742 2.2656-3.6641 3.4727-7.8867 3.4844-12.195 0-6.1875-2.457-12.121-6.832-16.496-4.375-4.3789-10.312-6.8359-16.5-6.8359z"/>
  <path d="m350 46.668c-61.883 0-121.23 24.582-164.99 68.34-43.758 43.758-68.34 103.11-68.34 164.99-0.46875 43.215 11.344 85.672 34.062 122.44 22.719 36.762 55.41 66.32 94.27 85.23 32.441 16.832 68.453 25.621 105 25.621s72.559-8.7891 105-25.621c38.844-18.934 71.52-48.496 94.234-85.254 22.715-36.758 34.539-79.207 34.098-122.41 0-40.957-10.781-81.195-31.258-116.67-20.48-35.469-49.938-64.926-85.406-85.406-35.473-20.477-75.711-31.258-116.67-31.258zm84 399.46c-25.977 13.52-54.832 20.574-84.117 20.574-29.285 0-58.137-7.0547-84.117-20.574-31.066-15.129-57.195-38.781-75.332-68.195-18.137-29.418-27.535-63.383-27.102-97.938 0-49.508 19.668-96.988 54.676-131.99 35.004-35.008 82.484-54.676 131.99-54.676s96.988 19.668 131.99 54.676c35.008 35.004 54.676 82.484 54.676 131.99 0.35547 34.566-9.1016 68.527-27.273 97.938-18.172 29.406-44.316 53.055-75.395 68.195z"/>
  <path d="m350 210c-6.1875 0-12.125 2.457-16.5 6.8359-4.375 4.375-6.832 10.309-6.832 16.496v163.34c0 8.3359 4.4453 16.039 11.664 20.207s16.117 4.168 23.336 0 11.664-11.871 11.664-20.207v-163.34c0-6.1875-2.457-12.121-6.832-16.496-4.375-4.3789-10.312-6.8359-16.5-6.8359z"/>
 </g>
</svg>
