<?xml version="1.0" encoding="UTF-8"?>
<svg width="700pt" height="700pt" version="1.1" viewBox="0 0 700 700" xmlns="http://www.w3.org/2000/svg">
 <path d="m573.63 451.67h-446.68c-7.5508 0-13.676-6.125-13.676-13.676 0-7.5195 6.125-13.645 13.676-13.645h50.145v-214.8c0-95.508 77.688-173.2 173.2-173.2 95.504 0 173.19 77.688 173.19 173.2v214.8h50.145c7.5352 0 13.68 6.125 13.68 13.645 0 7.5508-6.1445 13.676-13.68 13.676m-223.34 73.953c-23.352 0-43.223-15.137-50.316-36.125h100.63c-7.0938 20.988-26.965 36.125-50.312 36.125m223.34-135.21h-16.207v-180.86c0-114.21-92.926-207.13-207.13-207.13-114.23 0-207.13 92.926-207.13 207.13v180.86h-16.207c-26.254 0-47.617 21.328-47.617 47.582 0 26.25 21.363 47.617 47.617 47.617h137.62c6.3633 41.762 42.188 73.953 85.715 73.953 43.508 0 79.348-32.191 85.711-73.953h137.62c26.254 0 47.617-21.367 47.617-47.617 0-26.254-21.363-47.582-47.617-47.582" fill-rule="evenodd"/>
</svg>
